<svg width="558" height="126" viewBox="0 0 558 126" fill="none" xmlns="http://www.w3.org/2000/svg">
<path d="M364.411 113.446C366.615 116.682 369.839 117.078 372.913 117.783C374.599 118.169 376.348 118.683 376.288 120.791C376.214 123.383 374.091 123.389 372.251 123.385C364.259 123.364 356.266 123.289 348.275 123.201C346.757 123.185 345.091 123.095 344.691 121.22C344.237 119.1 345.682 118.234 347.445 117.779C353.501 116.218 355.602 111.644 355.632 106.106C355.793 76.4609 355.79 46.8143 355.799 17.1681C355.801 12.1457 354.116 8.39758 348.314 7.84332C346.355 7.65619 344.033 7.11395 344.686 4.23248C345.299 1.53161 347.513 2.66736 349.218 2.66192C355.878 2.64081 362.554 2.87042 369.189 2.45947C372.134 2.27698 373.73 3.16131 375.404 5.38312C392.627 28.2493 409.941 51.0479 427.252 73.8482C428.221 75.1245 428.827 76.8721 430.866 77.0978C432.597 75.7198 431.945 73.7558 431.95 72.0305C431.99 56.0417 432.015 40.0526 431.945 24.064C431.898 13.2129 430.659 11.5469 420.529 7.90021C419.032 7.36114 417.658 6.71747 417.808 4.84588C417.985 2.64313 419.623 2.23706 421.415 2.34875C429.567 2.85663 437.717 2.98999 445.873 2.42767C447.46 2.3183 448.961 2.70062 449.316 4.56561C449.66 6.37097 448.575 7.58575 447.007 7.89514C440.411 9.19653 438.86 14.0698 438.474 19.7244C438.225 23.3744 438.16 27.0428 438.157 30.7031C438.137 59.1843 438.175 87.6656 438.124 116.147C438.119 118.99 439.1 122.655 435.07 123.669C431.299 124.619 428.1 123.703 425.519 120.152C407.403 95.2403 389.137 70.4371 370.882 45.6261C368.578 42.4952 366.685 38.9609 363.479 36.6093C361.466 38.1639 362.02 39.9528 362.02 41.5292C362.029 62.1817 362.107 82.8343 362.099 103.487C362.097 106.888 362.546 110.119 364.411 113.446Z" fill="#DD5A12"/>
<path d="M1.53707 37.2767C-1.56584 15.5189 10.9596 3.96795 29.1538 0.754994C40.5043 -1.2494 50.9735 0.716664 60.6662 6.89916C63.6689 8.81444 66.1565 9.53869 67.1942 4.88488C67.5617 3.23674 68.4793 1.62413 70.6322 2.044C72.5163 2.41149 72.7495 4.19603 72.7365 5.60674C72.6352 16.577 72.4201 27.5464 72.189 38.5151C72.1556 40.1011 71.5808 41.6484 69.712 41.712C67.6463 41.7823 66.9521 40.2311 66.652 38.4369C65.8573 33.6849 65.175 28.9237 63.3004 24.4066C60.5689 17.8247 57.2162 11.8574 50.5861 8.32946C43.1824 4.39007 34.2454 5.32756 28.8491 10.8233C24.036 15.725 23.3036 26.1459 27.3343 32.7538C29.8911 36.9454 33.3972 40.2364 37.3041 43.1418C46.7803 50.1886 56.5715 56.801 65.5711 64.5008C77.1089 74.3719 81.4821 90.1476 76.2299 104.292C71.8732 116.025 58.5426 124.653 44.2799 125.45C32.5635 126.105 21.3388 124.874 11.0891 118.677C8.02636 116.825 6.46392 118.047 5.6227 121.059C5.1043 122.915 4.44542 124.821 2.05675 124.36C-0.429425 123.88 0.0219309 121.649 0.0482829 119.883C0.236821 107.246 0.46265 94.6103 0.699726 81.9746C0.733753 80.1607 0.535359 77.8854 2.98214 77.6393C5.85714 77.3502 5.91603 79.9345 6.09014 81.8167C6.89486 90.5167 8.84166 98.8536 12.7671 106.741C18.2512 117.76 30.4259 122.687 41.8462 118.272C50.9218 114.762 54.9828 103.157 50.712 92.8583C48.2169 86.8418 44.0233 82.1548 38.9049 78.2817C31.2071 72.4566 23.3358 66.8575 15.714 60.9361C8.10756 55.0265 2.71495 47.6269 1.53707 37.2767Z" fill="#DD5A12"/>
<path d="M467.622 104.915C467.398 113.782 468.569 115.288 476.964 117.813C478.741 118.348 481.426 118.378 480.951 121.253C480.527 123.824 478.122 123.788 476.145 123.765C468.501 123.676 460.858 123.507 453.216 123.3C451.443 123.252 449.245 123.591 448.49 121.398C447.7 119.104 449.683 118.273 451.226 117.281C456.113 114.14 458.639 109.291 460.546 104.063C472.231 72.0252 483.929 39.9923 495.486 7.9085C496.962 3.812 498.871 1.80254 503.67 1.78551C508.65 1.76794 510.662 3.78802 512.21 8.143C523.625 40.2568 535.19 72.3179 546.85 104.344C548.707 109.443 550.385 114.851 555.65 117.85C556.92 118.574 557.396 119.849 557.069 121.299C556.705 122.913 555.349 123.073 554.009 123.359C550.841 124.034 547.704 123.27 544.553 123.279C534.23 123.305 523.906 123.298 513.583 123.274C511.794 123.27 509.489 123.634 509.134 121.206C508.753 118.609 511.272 118.646 512.911 118.179C519.68 116.251 520.808 114.586 518.696 107.874C516.049 99.4668 513.011 91.1832 510.237 82.8147C509.133 79.4847 507.089 78.156 503.526 78.2569C495.872 78.4737 488.207 78.4412 480.55 78.3194C477.033 78.2634 475.138 79.6275 473.955 83.0201C471.487 90.0978 468.903 97.1189 467.622 104.915ZM491.072 35.2256C487.158 46.1665 483.309 57.1315 479.291 68.0344C478.009 71.5148 478.82 73.014 482.615 72.9665C489.098 72.8854 495.582 72.9374 502.065 72.9704C505.24 72.9866 506.335 71.4391 505.359 68.5236C501.773 57.8151 498.156 47.1165 494.446 36.4506C494.041 35.2866 493.672 33.1023 491.072 35.2256Z" fill="#DD5A12"/>
<path d="M146.551 19.4559C154.922 40.0249 161.699 60.7668 169.268 81.2168C172.562 90.1156 175.716 99.0666 179.044 107.952C180.517 111.885 182.381 115.617 186.401 117.688C187.789 118.403 189.008 119.362 188.647 121.168C188.222 123.284 186.424 123.543 184.754 123.536C170.928 123.483 157.102 123.371 143.277 123.241C141.723 123.226 140.12 122.893 140.019 120.923C139.932 119.23 141.388 118.907 142.67 118.442C151.35 115.295 151.73 114.521 148.685 105.497C146.131 97.9247 143.373 90.4198 140.913 82.818C139.892 79.6629 138.235 78.2156 134.793 78.2951C126.798 78.4798 118.797 78.3762 110.798 78.3679C108.736 78.3658 106.444 78.3688 105.692 80.6248C102.863 89.1033 98.3092 97.0946 98.2325 106.373C98.17 113.932 99.8311 116.088 107.156 117.887C107.48 117.966 107.803 118.045 108.128 118.121C109.952 118.548 111.981 118.918 111.52 121.478C111.15 123.535 109.296 123.888 107.622 123.861C99.309 123.729 90.9977 123.476 82.6854 123.281C81.2845 123.248 79.9688 123.008 79.3224 121.606C78.6284 120.101 79.4179 118.905 80.6287 118.228C87.8285 114.199 90.2002 106.937 92.7613 99.9275C103.836 69.6155 114.791 39.2599 125.741 8.9022C128.138 2.2551 131.437 0.426123 138.282 2.1503C140.539 2.71866 141.519 4.34031 142.181 6.29667C143.621 10.5522 145.019 14.8218 146.551 19.4559ZM122.069 35.2264C118.084 45.9394 114.124 56.6617 110.1 67.3603C108.702 71.0779 109.478 73.1092 113.85 72.9818C117.331 72.8803 120.826 73.1338 124.3 72.9519C128.314 72.7419 132.496 73.8686 137.058 71.5783C132.89 59.3821 128.792 47.3503 124.648 35.3344C124.278 34.2593 123.493 33.7091 122.069 35.2264Z" fill="#DD5A12"/>
<path d="M194.99 49.9061C190.605 38.3409 186.37 27.1349 182.133 15.9294C180.786 12.3673 178.482 9.63042 175.159 7.7376C173.817 6.97332 172.537 6.02428 173.143 4.19884C173.721 2.45873 175.241 2.23003 176.817 2.32628C190.628 3.16979 204.443 2.85717 218.257 2.43383C220.096 2.37743 221.823 2.55687 221.968 4.72008C222.133 7.1718 220.05 7.46172 218.233 7.88683C211.832 9.38476 210.299 11.4286 212.374 17.1886C220.72 40.3479 229.265 63.4355 237.802 86.525C238.289 87.8408 238.588 89.4648 240.461 90.2905C242.732 87.9841 243.113 84.7405 244.126 81.9094C249.336 67.3522 254.416 52.7469 259.384 38.1052C261.474 31.9462 262.94 25.5969 262.834 19.0297C262.728 12.4252 260.518 9.71996 254.209 8.02373C252.314 7.51458 249.71 7.37066 250.093 4.67235C250.486 1.89873 253.096 1.794 255.274 2.1068C263.24 3.25151 271.225 2.74639 279.208 2.58739C280.753 2.55663 282.311 2.49389 282.909 4.32622C283.391 5.80193 282.678 7.04223 281.55 7.80803C272.243 14.1224 269.702 24.3763 266.33 34.0693C256.546 62.1942 246.905 90.3688 237.239 118.535C236.15 121.707 234.926 124.328 230.761 124.087C226.653 123.849 223.076 123.816 221.231 118.858C212.701 95.9315 203.865 73.1189 194.99 49.9061Z" fill="#DD5A12"/>
<path d="M323.993 96.887C324.063 101.518 323.966 105.681 324.241 109.82C324.535 114.248 326.493 117.389 331.442 117.903C333.411 118.108 335.891 118.639 335.461 121.29C335.07 123.704 332.582 123.863 330.591 123.755C317.119 123.025 303.645 123.349 290.169 123.51C288.222 123.533 285.751 123.698 285.585 120.897C285.438 118.406 287.72 118.135 289.492 117.985C294.737 117.541 296.726 114.235 296.835 109.571C297.027 101.416 296.975 93.2551 296.983 85.0965C297.002 63.4453 297.019 41.7942 296.994 20.143C296.985 11.4758 296.523 10.8381 288.725 7.77051C287.095 7.12933 285.444 6.48193 286.028 4.30487C286.565 2.29895 288.24 2.12921 290.032 2.24194C303.669 3.09992 317.308 3.03827 330.947 2.2926C332.856 2.18829 334.9 2.11621 335.257 4.52777C335.624 6.9989 333.541 7.3819 331.727 7.85455C325.201 9.55487 324.255 10.5291 324.216 17.4691C324.067 43.7819 324.054 70.0956 323.993 96.887Z" fill="#DD5A12"/>
</svg>
