<svg width="273" height="397" viewBox="0 0 273 397" fill="none" xmlns="http://www.w3.org/2000/svg">
<path d="M177.255 95.6943C204.599 115.029 231.63 134.189 258.708 153.282C269.437 160.848 273.315 171.635 272.783 184.108C271.854 205.895 270.435 227.661 269.251 249.438C268.22 268.389 267.13 287.337 266.253 306.296C265.472 323.175 256.232 333.321 241.681 340.853C210.491 356.997 179.619 373.778 148.934 390.866C134.998 398.626 122.599 398.477 109.473 389.031C78.6537 366.853 47.4078 345.268 16.3854 323.371C5.352 315.583 -0.0751832 304.952 0.655469 291.29C2.45085 257.716 3.56434 224.107 6.45753 190.592C7.08558 183.317 7.25856 175.963 7.48231 168.652C7.90809 154.737 13.8212 144.468 26.1098 137.881C53.9857 122.938 81.8558 107.984 109.722 93.0226C112.776 91.383 116.044 90.0507 118.589 87.1917C116.663 83.1038 112.903 80.7504 109.822 77.8543C103.028 71.4659 96.1102 65.2013 89.072 59.0825C86.4807 56.8298 85.4809 54.6356 86.7275 51.2796C92.29 36.3042 97.7483 21.2899 103.192 6.27065C104.121 3.70619 106.086 3.41846 108.372 3.34024C129.505 2.61699 150.576 0.550217 171.74 0.479157C182.113 0.444321 182.03 0.437974 186.413 10.1939C191.735 22.038 197.073 33.8787 202.702 45.578C204.551 49.4234 203.749 51.8812 200.921 54.781C191.502 64.4369 182.243 74.2531 173.109 84.1802C168.268 89.443 168.459 89.7149 174.493 93.7885C175.321 94.348 176.138 94.9243 177.255 95.6943ZM199.969 327.59C206.032 323.668 209.214 317.702 211.561 311.167C220.729 285.634 229.947 260.119 238.998 234.545C242.364 225.036 241.672 216.016 235.292 207.624C218.258 185.219 201.463 162.632 184.452 140.21C178.355 132.174 170.132 129.343 160.165 131.073C136.054 135.256 111.963 139.594 87.7774 143.3C75.0302 145.253 66.2487 151.107 61.8908 163.563C52.8192 189.491 43.4652 215.32 34.2276 241.19C30.7602 250.901 32.1681 259.852 38.407 268.055C39.9186 270.042 41.4086 272.046 42.9077 274.043C58.0067 294.158 73.0076 314.347 88.2493 334.353C95.0254 343.248 103.841 346.261 115.157 343.84C129.127 340.851 143.402 339.315 157.445 336.629C171.449 333.95 185.959 333.655 199.969 327.59ZM143.648 105.905C145.275 107.087 147.117 108.726 148.961 106.893C153.363 102.517 157.5 97.8751 162.631 92.3927C150.208 89.9393 139.278 89.7132 127.091 89.7799C132.422 96.5349 138.115 100.632 143.648 105.905Z" fill="#DD5A12"/>
</svg>
