<svg width="558" height="649" viewBox="0 0 558 649" fill="none" xmlns="http://www.w3.org/2000/svg">
<path d="M300.255 95.6943C327.599 115.029 354.63 134.189 381.708 153.282C392.437 160.848 396.315 171.635 395.783 184.108C394.854 205.895 393.435 227.661 392.251 249.438C391.22 268.389 390.13 287.337 389.253 306.296C388.472 323.175 379.232 333.321 364.681 340.853C333.491 356.997 302.619 373.778 271.934 390.866C257.998 398.626 245.599 398.477 232.473 389.031C201.654 366.853 170.408 345.268 139.385 323.371C128.352 315.583 122.925 304.952 123.655 291.29C125.451 257.716 126.564 224.107 129.458 190.592C130.086 183.317 130.259 175.963 130.482 168.652C130.908 154.737 136.821 144.468 149.11 137.881C176.986 122.938 204.856 107.984 232.722 93.0226C235.776 91.383 239.044 90.0507 241.589 87.1917C239.663 83.1038 235.903 80.7504 232.822 77.8543C226.028 71.4659 219.11 65.2013 212.072 59.0825C209.481 56.8298 208.481 54.6356 209.728 51.2796C215.29 36.3042 220.748 21.2899 226.192 6.27065C227.121 3.70619 229.086 3.41846 231.372 3.34024C252.505 2.61699 273.576 0.550217 294.74 0.479157C305.113 0.444321 305.03 0.437974 309.413 10.1939C314.735 22.038 320.073 33.8787 325.702 45.578C327.551 49.4234 326.749 51.8812 323.921 54.781C314.502 64.4369 305.243 74.2531 296.109 84.1802C291.268 89.443 291.459 89.7149 297.493 93.7885C298.321 94.348 299.138 94.9243 300.255 95.6943ZM322.969 327.59C329.032 323.668 332.214 317.702 334.561 311.167C343.729 285.634 352.947 260.119 361.998 234.545C365.364 225.036 364.672 216.016 358.292 207.624C341.258 185.219 324.463 162.632 307.452 140.21C301.355 132.174 293.132 129.343 283.165 131.073C259.054 135.256 234.963 139.594 210.777 143.3C198.03 145.253 189.249 151.107 184.891 163.563C175.819 189.491 166.465 215.32 157.228 241.19C153.76 250.901 155.168 259.852 161.407 268.055C162.919 270.042 164.409 272.046 165.908 274.043C181.007 294.158 196.008 314.347 211.249 334.353C218.025 343.248 226.841 346.261 238.157 343.84C252.127 340.851 266.402 339.315 280.445 336.629C294.449 333.95 308.959 333.655 322.969 327.59ZM266.648 105.905C268.275 107.087 270.117 108.726 271.961 106.893C276.363 102.517 280.5 97.8751 285.631 92.3927C273.208 89.9393 262.278 89.7132 250.091 89.7799C255.422 96.5349 261.115 100.632 266.648 105.905Z" fill="#DD5A12"/>
<path d="M364.419 569.419C366.623 572.655 369.847 573.051 372.921 573.755C374.607 574.142 376.356 574.656 376.296 576.764C376.222 579.356 374.099 579.362 372.259 579.358C364.267 579.337 356.274 579.262 348.283 579.174C346.765 579.158 345.099 579.068 344.699 577.193C344.245 575.073 345.691 574.207 347.453 573.752C353.509 572.19 355.61 567.617 355.64 562.079C355.801 532.434 355.799 502.787 355.807 473.141C355.809 468.119 354.124 464.37 348.322 463.816C346.363 463.629 344.041 463.087 344.694 460.205C345.307 457.505 347.521 458.64 349.227 458.635C355.886 458.614 362.562 458.843 369.197 458.432C372.142 458.25 373.738 459.134 375.412 461.356C392.635 484.222 409.949 507.021 427.26 529.821C428.229 531.097 428.835 532.845 430.874 533.071C432.605 531.693 431.953 529.729 431.958 528.003C431.998 512.015 432.023 496.026 431.953 480.037C431.906 469.186 430.667 467.52 420.538 463.873C419.04 463.334 417.666 462.69 417.816 460.819C417.993 458.616 419.631 458.21 421.423 458.322C429.575 458.83 437.725 458.963 445.881 458.401C447.468 458.291 448.969 458.674 449.324 460.539C449.668 462.344 448.584 463.559 447.015 463.868C440.42 465.169 438.868 470.043 438.482 475.697C438.233 479.347 438.168 483.016 438.165 486.676C438.145 515.157 438.183 543.639 438.132 572.12C438.127 574.963 439.108 578.628 435.078 579.642C431.307 580.592 428.109 579.676 425.527 576.125C407.411 551.213 389.145 526.41 370.89 501.599C368.586 498.468 366.693 494.934 363.488 492.582C361.474 494.137 362.028 495.926 362.028 497.502C362.037 518.155 362.115 538.807 362.107 559.46C362.105 562.861 362.554 566.092 364.419 569.419Z" fill="#DD5A12"/>
<path d="M1.54525 493.25C-1.55766 471.492 10.9678 459.941 29.1619 456.728C40.5125 454.724 50.9817 456.69 60.6744 462.872C63.6771 464.787 66.1647 465.512 67.2024 460.858C67.5699 459.21 68.4875 457.597 70.6403 458.017C72.5245 458.384 72.7577 460.169 72.7447 461.58C72.6434 472.55 72.4283 483.519 72.1972 494.488C72.1637 496.074 71.589 497.621 69.7201 497.685C67.6545 497.755 66.9603 496.204 66.6602 494.41C65.8655 489.658 65.1832 484.897 63.3086 480.38C60.5771 473.798 57.2244 467.83 50.5943 464.302C43.1906 460.363 34.2536 461.3 28.8573 466.796C24.0442 471.698 23.3118 482.119 27.3425 488.727C29.8992 492.918 33.4054 496.209 37.3122 499.115C46.7885 506.162 56.5796 512.774 65.5793 520.474C77.1171 530.345 81.4903 546.12 76.2381 560.265C71.8814 571.997 58.5507 580.626 44.2881 581.423C32.5716 582.078 21.3469 580.847 11.0973 574.649C8.03453 572.798 6.4721 574.02 5.63088 577.032C5.11248 578.888 4.4536 580.794 2.06493 580.333C-0.421246 579.853 0.0301096 577.622 0.0564616 575.856C0.245 563.219 0.470829 550.583 0.707905 537.948C0.741932 536.134 0.543538 533.858 2.99031 533.612C5.86531 533.323 5.92421 535.907 6.09832 537.79C6.90303 546.49 8.84984 554.827 12.7753 562.714C18.2594 573.733 30.434 578.66 41.8544 574.244C50.93 570.735 54.991 559.13 50.7201 548.831C48.2251 542.815 44.0315 538.128 38.9131 534.255C31.2153 528.429 23.344 522.83 15.7222 516.909C8.11574 510.999 2.72313 503.6 1.54525 493.25Z" fill="#DD5A12"/>
<path d="M467.63 560.888C467.407 569.755 468.578 571.261 476.973 573.786C478.75 574.321 481.434 574.351 480.96 577.226C480.536 579.797 478.13 579.761 476.153 579.738C468.509 579.648 460.866 579.48 453.224 579.273C451.451 579.225 449.254 579.564 448.498 577.371C447.708 575.077 449.692 574.246 451.234 573.254C456.121 570.113 458.648 565.264 460.554 560.036C472.239 527.998 483.937 495.965 495.494 463.881C496.97 459.785 498.879 457.775 503.678 457.758C508.659 457.741 510.67 459.761 512.218 464.116C523.634 496.23 535.198 528.291 546.858 560.317C548.715 565.416 550.393 570.824 555.658 573.823C556.929 574.547 557.405 575.822 557.077 577.272C556.713 578.885 555.357 579.046 554.017 579.332C550.849 580.007 547.713 579.243 544.562 579.251C534.238 579.278 523.915 579.27 513.591 579.247C511.802 579.243 509.497 579.607 509.142 577.179C508.762 574.582 511.28 574.619 512.919 574.152C519.688 572.224 520.816 570.559 518.704 563.847C516.058 555.44 513.019 547.156 510.245 538.788C509.141 535.458 507.097 534.129 503.534 534.23C495.88 534.447 488.215 534.414 480.558 534.292C477.041 534.236 475.147 535.6 473.963 538.993C471.495 546.071 468.911 553.092 467.63 560.888ZM491.081 491.199C487.166 502.139 483.318 513.104 479.3 524.007C478.017 527.488 478.828 528.987 482.624 528.939C489.106 528.858 495.59 528.91 502.073 528.943C505.249 528.959 506.344 527.412 505.367 524.496C501.781 513.788 498.164 503.089 494.454 492.423C494.049 491.26 493.681 489.075 491.081 491.199Z" fill="#DD5A12"/>
<path d="M146.559 475.429C154.93 495.998 161.707 516.74 169.277 537.19C172.57 546.088 175.724 555.04 179.052 563.925C180.525 567.858 182.389 571.59 186.409 573.661C187.797 574.375 189.016 575.335 188.655 577.141C188.231 579.257 186.432 579.515 184.762 579.509C170.936 579.456 157.11 579.344 143.285 579.213C141.731 579.199 140.128 578.866 140.027 576.896C139.94 575.203 141.396 574.88 142.678 574.415C151.358 571.268 151.738 570.494 148.693 561.469C146.139 553.898 143.381 546.393 140.921 538.791C139.9 535.636 138.243 534.189 134.801 534.268C126.806 534.453 118.805 534.349 110.807 534.341C108.745 534.339 106.453 534.342 105.7 536.598C102.871 545.076 98.3174 553.067 98.2407 562.346C98.1782 569.905 99.8393 572.061 107.164 573.859C107.488 573.939 107.812 574.018 108.136 574.094C109.961 574.521 111.989 574.891 111.528 577.451C111.158 579.508 109.304 579.861 107.63 579.834C99.3171 579.702 91.0059 579.449 82.6936 579.254C81.2927 579.221 79.977 578.981 79.3306 577.579C78.6365 576.074 79.4261 574.878 80.6368 574.201C87.8367 570.172 90.2083 562.91 92.7694 555.9C103.844 525.588 114.8 495.233 125.749 464.875C128.146 458.228 131.445 456.399 138.291 458.123C140.547 458.692 141.528 460.313 142.189 462.27C143.629 466.525 145.027 470.795 146.559 475.429ZM122.077 491.199C118.092 501.912 114.132 512.635 110.109 523.333C108.711 527.051 109.486 529.082 113.858 528.955C117.339 528.853 120.834 529.107 124.309 528.925C128.322 528.715 132.504 529.842 137.067 527.551C132.898 515.355 128.8 503.323 124.657 491.307C124.286 490.232 123.501 489.682 122.077 491.199Z" fill="#DD5A12"/>
<path d="M194.998 505.879C190.613 494.314 186.378 483.108 182.141 471.902C180.794 468.34 178.49 465.603 175.167 463.71C173.825 462.946 172.545 461.997 173.151 460.172C173.729 458.432 175.249 458.203 176.825 458.299C190.636 459.143 204.452 458.83 218.265 458.407C220.104 458.35 221.831 458.53 221.976 460.693C222.141 463.145 220.058 463.435 218.242 463.86C211.84 465.358 210.307 467.402 212.383 473.162C220.728 496.321 229.273 519.408 237.811 542.498C238.297 543.814 238.596 545.438 240.469 546.263C242.74 543.957 243.121 540.713 244.134 537.882C249.344 523.325 254.424 508.72 259.393 494.078C261.482 487.919 262.948 481.57 262.842 475.003C262.736 468.398 260.526 465.693 254.217 463.997C252.323 463.487 249.719 463.344 250.101 460.645C250.494 457.872 253.105 457.767 255.282 458.08C263.249 459.224 271.233 458.719 279.216 458.56C280.761 458.53 282.319 458.467 282.917 460.299C283.399 461.775 282.686 463.015 281.558 463.781C272.251 470.095 269.71 480.349 266.338 490.042C256.554 518.167 246.913 546.342 237.247 574.508C236.158 577.68 234.934 580.301 230.769 580.06C226.661 579.822 223.084 579.788 221.24 574.831C212.709 551.904 203.873 529.092 194.998 505.879Z" fill="#DD5A12"/>
<path d="M324.001 552.86C324.071 557.49 323.974 561.654 324.249 565.792C324.544 570.221 326.501 573.362 331.45 573.876C333.419 574.081 335.9 574.611 335.47 577.263C335.078 579.677 332.59 579.836 330.599 579.728C317.127 578.998 303.653 579.322 290.177 579.483C288.23 579.506 285.759 579.671 285.594 576.87C285.447 574.379 287.728 574.108 289.5 573.958C294.745 573.514 296.734 570.208 296.844 565.544C297.035 557.389 296.984 549.228 296.991 541.069C297.01 519.418 297.027 497.767 297.003 476.116C296.993 467.449 296.531 466.811 288.733 463.743C287.103 463.102 285.453 462.455 286.036 460.278C286.573 458.272 288.248 458.102 290.041 458.215C303.677 459.073 317.317 459.011 330.955 458.266C332.864 458.161 334.908 458.089 335.266 460.501C335.632 462.972 333.55 463.355 331.735 463.827C325.21 465.528 324.263 466.502 324.224 473.442C324.076 499.755 324.062 526.068 324.001 552.86Z" fill="#DD5A12"/>
<path d="M292.51 642.459C283.018 652.453 268.855 648.929 263.834 635.676C261.448 629.376 263.654 620.117 268.665 615.399C274.011 610.366 280.835 609.487 288.079 612.897C294.599 615.966 298.561 626.257 296.34 634.563C295.608 637.296 294.589 639.94 292.51 642.459ZM289.569 635.819C290.644 632.432 291.17 628.999 290.212 625.497C288.984 621.01 286.654 617.597 281.558 617.079C275.583 616.472 271.862 619.088 270.104 625.093C268.171 631.699 270.58 638.656 275.674 641.177C280.664 643.648 285.141 642.12 289.569 635.819Z" fill="#DD5A12"/>
<path d="M300.992 636.938C300.988 629.633 301.065 622.816 300.956 616.002C300.899 612.463 302.26 610.693 305.944 610.888C308.432 611.02 310.936 610.848 313.423 610.995C317.818 611.254 321.714 612.703 323.433 617.12C325.109 621.426 324.906 625.942 321.312 629.121C318.037 632.016 318.97 634.292 320.797 637.276C322.673 640.34 325.424 642.941 326.279 646.893C322.677 649.17 320.557 647.434 318.501 644.572C315.758 640.756 313.88 636.173 309.369 633.204C307.543 636.857 307.234 640.223 307.537 643.677C307.743 646.031 306.978 647.735 304.482 647.886C301.826 648.045 301.204 646.102 301.132 643.909C301.06 641.75 301.039 639.588 300.992 636.938ZM315.279 617.114C312.767 616.127 309.656 614.904 308.558 618.263C307.551 621.343 306.385 625.619 309.392 627.923C311.616 629.627 314.93 627.911 316.696 625.527C318.684 622.841 318.472 619.981 315.279 617.114Z" fill="#DD5A12"/>
<path d="M345.584 640.2C341.34 632.695 341.78 625.554 345.76 618.544C348.994 612.846 354.34 610.823 360.502 611.07C366.715 611.319 371.667 614.104 374.528 619.88C378.211 627.314 377.137 636.925 371.898 642.796C367.014 648.271 360.882 649.116 354.13 647.192C350.429 646.138 347.699 643.83 345.584 640.2ZM370.023 631.662C370.457 629.182 370.455 626.735 369.654 624.305C368.205 619.906 365.256 617.404 360.596 617.065C355.991 616.729 352.542 618.557 350.457 622.728C348.996 625.651 348.813 628.8 349.234 631.959C350.057 638.138 354.029 642.096 359.418 642.278C364.88 642.463 368.62 638.979 370.023 631.662Z" fill="#DD5A12"/>
<path d="M155.401 647.963C151.716 648.234 150.829 645.808 150.23 643.321C149.291 639.424 146.961 637.92 142.993 638.124C138.945 638.333 134.793 637.868 133.348 643.078C132.999 644.337 132.432 645.612 131.664 646.659C130.676 648.004 129.162 648.275 127.634 647.547C126.005 646.77 126.365 645.421 126.838 644.111C130.453 634.094 134.09 624.085 137.681 614.06C138.385 612.094 139.656 611.021 141.749 611.035C143.883 611.048 145 612.291 145.701 614.211C149.296 624.056 152.942 633.882 156.587 643.709C157.176 645.297 158.044 646.892 155.401 647.963ZM140.006 624.856C139.608 625.949 139.102 627.016 138.838 628.14C138.453 629.779 136.837 631.7 139.145 632.995C140.768 633.906 142.782 633.987 144.422 632.967C146.53 631.656 145.584 629.745 144.838 628.092C143.922 626.063 143.672 623.643 141.558 621.83C141.007 622.83 140.621 623.53 140.006 624.856Z" fill="#DD5A12"/>
<path d="M200.802 626.692C203.193 626.842 205.195 626.867 207.175 627.09C208.607 627.252 209.725 627.999 209.64 629.667C209.563 631.195 208.308 631.42 207.155 631.611C206.175 631.774 205.172 631.863 204.178 631.874C198.772 631.932 196.54 634.717 197.471 640.102C197.838 642.227 199.182 642.754 201.011 642.789C203.672 642.84 206.335 642.844 208.994 642.949C210.739 643.018 212.556 643.425 212.577 645.569C212.598 647.738 210.842 648.145 209.042 648.15C204.384 648.163 199.725 648.102 195.068 648.183C192.155 648.234 190.793 647.006 190.809 644.034C190.859 634.386 190.856 624.736 190.804 615.088C190.789 612.367 192.082 611.051 194.692 611.024C199.516 610.975 204.341 610.972 209.164 611.035C210.687 611.054 212.353 611.328 212.467 613.3C212.596 615.525 210.991 616.033 209.153 616.06C207.157 616.088 205.151 615.958 203.167 616.118C201.004 616.292 197.742 615.349 197.584 618.644C197.451 621.405 195.934 625.272 200.802 626.692Z" fill="#DD5A12"/>
<path d="M379.052 644.278C378.462 639.953 379.915 638.588 383.686 640.733C385.126 641.552 386.425 642.629 388.186 642.758C390.951 642.962 393.23 642.115 394.276 639.434C395.386 636.584 394.015 634.611 391.447 633.367C389.8 632.568 388.112 631.852 386.435 631.115C380.97 628.712 378.321 624.301 379.407 619.395C380.601 614 384.726 610.995 390.859 611.07C393.231 611.099 395.499 611.612 397.555 612.812C398.973 613.64 399.839 614.854 399.105 616.555C398.371 618.255 396.94 618.481 395.341 617.947C394.236 617.578 393.192 617.016 392.077 616.695C389.828 616.046 387.498 616.086 386.526 618.538C385.483 621.169 386.355 623.452 389.157 624.673C390.684 625.339 392.232 625.959 393.734 626.677C399.819 629.588 402.057 633.933 400.337 639.421C398.408 645.575 393.146 648.953 386.898 647.969C384.063 647.522 381.413 646.572 379.052 644.278Z" fill="#DD5A12"/>
<path d="M175.053 611.019C178.389 610.992 181.026 612.029 183.516 613.388C184.97 614.181 186.544 615.286 185.658 617.306C184.726 619.43 182.997 619.505 181.063 618.572C176.125 616.193 171.273 615.975 167.338 620.285C163.18 624.838 163.218 630.301 165.348 635.734C167.792 641.967 173.645 644.006 179.603 640.971C181.565 639.972 183.874 637.63 185.522 640.792C187.164 643.943 184.096 645.26 181.978 646.279C175.967 649.172 169.886 648.977 164.558 644.848C158.256 639.962 156.83 632.983 158.057 625.522C159.508 616.711 164.317 612.727 175.053 611.019Z" fill="#DD5A12"/>
<path d="M218.628 614.887C223.908 610.611 229.486 609.975 233.998 612.791C235.534 613.749 236.764 614.868 235.734 616.805C234.837 618.494 233.366 618.282 231.848 617.621C230.787 617.159 229.71 616.63 228.587 616.434C226.03 615.987 223.848 616.832 222.852 619.303C221.836 621.822 223.534 623.429 225.491 624.533C227.216 625.506 229.109 626.199 230.966 626.921C235.746 628.779 238.08 632.346 237.796 637.356C237.511 642.366 233.809 646.335 228.984 647.63C225.009 648.697 221.409 647.809 217.989 645.829C216.227 644.81 214.277 643.596 215.836 641.174C217.121 639.177 218.892 639.812 220.641 640.827C221.915 641.567 223.286 642.359 224.701 642.588C227.625 643.062 230.018 641.939 231.11 639.059C232.262 636.022 230.335 634.437 227.923 633.23C226.586 632.561 225.243 631.902 223.904 631.238C216.135 627.386 214.666 623.106 218.628 614.887Z" fill="#DD5A12"/>
<path d="M245.649 630.395C240.441 626.743 238.972 619.392 242.255 614.985C245.512 610.612 254.113 609.644 258.646 613.082C259.887 614.023 260.36 615.089 259.729 616.518C259.127 617.883 258.116 618.609 256.551 618.199C256.233 618.116 255.924 617.978 255.628 617.832C252.309 616.193 248.564 614.675 246.942 619.424C245.265 624.334 249.982 624.853 252.993 626.184C260.745 629.61 263.448 635.457 260.13 641.898C256.907 648.154 248.332 650.045 241.951 645.886C240.28 644.797 238.186 643.697 239.727 641.24C241.009 639.196 242.865 639.878 244.536 640.909C246.258 641.972 248.01 642.834 250.128 642.707C252.806 642.547 254.435 641.171 255.123 638.627C255.821 636.043 254.431 634.473 252.36 633.414C250.291 632.356 248.121 631.497 245.649 630.395Z" fill="#DD5A12"/>
<path d="M331.278 645.089C331.328 635.769 331.385 626.817 331.415 617.865C331.418 616.873 331.212 615.88 331.207 614.887C331.196 612.895 331.606 611.178 334.148 611.2C336.498 611.22 337.289 612.57 337.292 614.739C337.305 624.539 337.364 634.339 337.39 644.139C337.395 645.948 336.812 647.465 334.842 647.904C332.851 648.348 331.652 647.46 331.278 645.089Z" fill="#DD5A12"/>
<path d="M283.383 602.366C285.058 602.031 286.517 601.704 287.122 603.349C287.611 604.681 286.5 605.479 285.612 606.203C283.331 608.062 281.117 610.222 277.483 608.746C278.038 605.324 280.032 603.465 283.383 602.366Z" fill="#DD5A12"/>
</svg>
